<svg version="1.2" baseProfile="tiny-ps" xmlns="http://www.w3.org/2000/svg" width="80" height="78"><style>.shp0{fill:#fff}</style><g id="b84507ba-a37d-0d6c-3fcb-8fc531264173"><path id="Layer" fill-rule="evenodd" class="shp0" d="M104.37 48.95c-4.48-4.48-6.71-10.07-6.71-16.77 0-6.58 2.23-12.13 6.71-16.63 4.48-4.48 10.04-6.72 16.68-6.72 6.67 0 12.4 2.08 17.18 6.26l-6.21 6.81c-3.2-2.5-6.86-3.75-10.97-3.75-4.2.03-7.6 1.36-10.19 3.98-2.56 2.58-3.84 5.91-3.84 9.96 0 4.35 1.3 7.81 3.89 10.37 2.59 2.56 5.98 3.84 10.19 3.84 3.38 0 5.97-.66 7.77-1.97v-8.04l-6.22.05v-8.78h15.58v21.89c-4.75 4.15-10.48 6.22-17.18 6.22-6.64 0-12.2-2.24-16.68-6.72zM155 24.41v3.47c2.26-2.28 4.99-3.42 8.18-3.42 1.01 0 1.97.07 2.88.22l-1.37 8.64c-1-.91-2.45-1.4-4.34-1.46-2.13.15-3.91 1.69-5.35 4.61v19.2h-8.72v-30.3l8.72-.96zm19.56 27.01c-3.01-3.05-4.52-6.83-4.52-11.34 0-4.53 1.51-8.33 4.52-11.37 3.05-3.05 6.84-4.57 11.38-4.57 4.54 0 8.33 1.52 11.38 4.57 3.05 3.04 4.57 6.84 4.57 11.37 0 4.54-1.52 8.32-4.57 11.34-3.05 3.04-6.84 4.57-11.38 4.57-4.54 0-8.33-1.53-11.38-4.57zm11.38-2.97c2.35 0 4.27-.81 5.76-2.43 1.49-1.58 2.24-3.56 2.24-5.94 0-2.37-.75-4.35-2.24-5.94-1.49-1.61-3.43-2.42-5.8-2.42-2.35 0-4.27.81-5.76 2.42-1.46 1.59-2.2 3.57-2.2 5.94 0 2.38.74 4.36 2.2 5.94 1.49 1.62 3.43 2.43 5.8 2.43zm40.72-3.84v-20.2h8.73v31.26h-8.73v-2.84c-2.1 1.89-4.6 2.84-7.5 2.84-3.96 0-6.97-1.21-9.04-3.61-2.11-2.41-3.16-5.17-3.16-8.27V24.41h8.78v17.18c0 2.07.51 3.69 1.55 4.85 1.04 1.15 2.6 1.76 4.71 1.82 1.82-.12 3.38-1.34 4.66-3.65zm24.9 24.22l-8.73-.05V25.37l8.73-.96v2.51c2.35-1.67 4.65-2.51 6.9-2.51 4.79 0 8.58 1.57 11.38 4.71 2.83 3.1 4.25 6.74 4.25 10.92 0 4.17-1.42 7.81-4.25 10.92-2.8 3.14-6.59 4.71-11.38 4.71-3.14-.22-5.44-1.07-6.9-2.56v15.72zm0-31.62v5.07c.43 3.5 2.62 5.56 6.58 6.17 5-.4 7.82-2.99 8.46-7.77-.22-5.85-3.03-8.88-8.46-9.1-3.96.64-6.15 2.52-6.58 5.63zm31.53 14.21c-3.04-3.05-4.57-6.83-4.57-11.34 0-4.53 1.53-8.33 4.57-11.37 3.02-3.05 6.8-4.57 11.34-4.57s8.33 1.52 11.37 4.57c3.05 3.04 4.57 6.84 4.57 11.37 0 4.54-1.52 8.32-4.57 11.34-3.04 3.04-6.83 4.57-11.37 4.57-4.54 0-8.32-1.53-11.34-4.57zm11.34-2.97c2.37 0 4.29-.81 5.75-2.43 1.5-1.58 2.24-3.56 2.24-5.94 0-2.37-.74-4.35-2.24-5.94-1.46-1.61-3.39-2.42-5.8-2.42-2.35 0-4.26.81-5.76 2.42-1.46 1.59-2.19 3.57-2.19 5.94 0 2.38.73 4.36 2.19 5.94 1.5 1.62 3.43 2.43 5.81 2.43zm30.52-12.75v19.97h-8.77v-30.3l8.77-.96v2.79c1.95-1.83 4.45-2.74 7.5-2.74 3.93 0 6.94 1.18 9.04 3.56 2.29-2.38 5.72-3.56 10.29-3.56 3.96 0 6.99 1.18 9.09 3.56 2.07 2.41 3.11 5.18 3.11 8.32v19.33h-8.73V38.48c0-2.07-.47-3.68-1.42-4.84-.94-1.13-2.47-1.72-4.57-1.78-1.73.12-3.23 1.26-4.48 3.43-.12.64-.18 1.29-.18 1.96v18.42h-8.73V38.48c0-2.07-.47-3.68-1.41-4.84-.95-1.13-2.47-1.72-4.57-1.78-1.92.12-3.57 1.4-4.94 3.84zm47.34-7.5c3.96-2.5 8.55-3.74 13.76-3.74 3.75 0 6.7 1.03 8.86 3.1 2.2 2.11 3.29 5.23 3.29 9.37v18.74h-8.72V53.2c-2.56 1.64-4.86 2.47-6.9 2.47-4.15 0-7.27-.89-9.37-2.65-2.07-1.77-3.11-4.21-3.11-7.32 0-2.92.99-5.52 2.97-7.81 1.95-2.28 5.12-3.43 9.51-3.43 2.04 0 4.34.63 6.9 1.88v-.96c-.07-2.29-1.74-3.54-5.03-3.75-3.75 0-6.66.62-8.73 1.87l-3.43-5.3zm17.19 18.1v-3.52c-.83-1.61-2.81-2.42-5.95-2.42-3.74.42-5.72 1.89-5.94 4.39.22 2.46 2.2 3.8 5.94 4.02 3.14 0 5.12-.83 5.95-2.47zm25.31-10.47v19.84h-8.77v-30.3l8.77-.96v2.83c2.1-1.85 4.6-2.78 7.5-2.78 3.96 0 6.97 1.18 9.04 3.56 2.08 2.41 3.11 5.18 3.11 8.32v19.33h-8.73V38.48c0-2.07-.51-3.68-1.55-4.84-1.07-1.13-2.65-1.72-4.75-1.78-1.8.12-3.34 1.45-4.62 3.97zm35.74 19.84h-8.73V24.41h8.73v31.26zm-7.82-41.86c.86-.85 1.98-1.28 3.38-1.28 1.5 0 2.67.43 3.52 1.28.83.85 1.24 1.9 1.24 3.15s-.41 2.29-1.24 3.11c-.85.82-1.99 1.23-3.42 1.23-1.47 0-2.62-.41-3.48-1.23-.82-.82-1.23-1.86-1.23-3.11 0-1.25.41-2.3 1.23-3.15zm16.04 14.39c3.96-2.5 8.55-3.74 13.76-3.74 3.74 0 6.71 1.03 8.91 3.1 2.16 2.11 3.24 5.23 3.24 9.37v18.74h-8.73V53.2c-2.52 1.64-4.81 2.47-6.85 2.47-4.17 0-7.3-.89-9.37-2.65-2.1-1.77-3.15-4.21-3.15-7.32 0-2.92.99-5.52 2.97-7.81 1.95-2.28 5.13-3.43 9.55-3.43 2.01 0 4.29.63 6.85 1.88v-.96c-.03-2.29-1.69-3.54-4.98-3.75-3.74 0-6.67.62-8.77 1.87l-3.43-5.3zm17.18 18.1v-3.52c-.82-1.61-2.8-2.42-5.94-2.42-3.74.42-5.72 1.89-5.94 4.39.22 2.46 2.2 3.8 5.94 4.02 3.14 0 5.12-.83 5.94-2.47z"/></g><g id="eb8ee116-946f-66a4-a2bb-64183428be89"><g id="Layer"><g id="Layer"><path id="Layer" fill-rule="evenodd" class="shp0" d="M11.7 66.7C4.37 59.36.37 49.6.37 39.2c0-10.4 4-20.16 11.33-27.5C19.04 4.37 28.8.37 39.2.37c10.4 0 20.16 4 27.5 11.33 7.33 7.34 11.33 17.1 11.33 27.5 0 10.4-4 20.16-11.33 27.5-7.34 7.33-17.1 11.33-27.5 11.33-10.4 0-20.16-4-27.5-11.33zm29.73 4.73c2.79-4.18 5.02-8.54 6.59-13.19-1.2-.83-2.22-2.13-2.78-3.53H28.8c1.48 5.85 3.99 11.43 7.33 16.63 1.03.09 2.05.19 3.07.19.74 0 1.49 0 2.23-.1zm26.1-16.72h-7.15c-1.02 2.51-3.16 4.37-5.85 4.93a58.454 58.454 0 01-4.28 9.93c7.34-2.78 13.57-8.08 17.28-14.86zm3.9-15.51c0-3.07-.37-6.13-1.3-8.92H57.31c.37 2.79.56 5.67.56 8.55 0 2.04-.09 4.09-.28 6.13 1.12.84 2.05 1.95 2.6 3.16h10.03c.75-2.88 1.21-5.85 1.21-8.92zM50.81 9.1c2.42 4.65 4.18 9.48 5.39 14.59h11.33c-3.71-6.6-9.66-11.89-16.72-14.59zm.56 29.73c0-2.88-.19-5.76-.56-8.55H32.7c-1.21 2.05-3.16 3.63-5.58 4.09-.18 1.76-.27 3.53-.27 5.29 0 2.79.27 5.67.65 8.46h17.92c1.03-2.32 3.16-4 5.76-4.55.1-1.58.19-3.16.19-4.74zM30.28 19.69a8.957 8.957 0 012.88 4h16.16c-1.48-5.85-3.99-11.43-7.33-16.63-.93-.09-1.86-.09-2.79-.09-.74 0-1.58 0-2.42.09a60.152 60.152 0 00-6.5 12.63zm-19.32 3.9h6.78c.93-2.69 3.25-4.83 6.13-5.38 1.12-3.16 2.51-6.32 4.09-9.29-7.34 2.78-13.38 8.08-17 14.67zM8.27 48.12H20.9c-.37-2.79-.56-5.58-.56-8.46 0-2.22.19-4.45.38-6.68-.93-.75-1.77-1.68-2.33-2.7H8.27c-.84 2.79-1.3 5.85-1.3 8.92 0 3.07.37 6.04 1.3 8.92zm2.6 6.5c3.62 6.59 9.47 11.8 16.53 14.58-2.41-4.64-4.18-9.56-5.38-14.58H10.87z"/></g></g></g></svg>