<svg version="1.2" baseProfile="tiny-ps" xmlns="http://www.w3.org/2000/svg" viewBox="0 0 80 78" width="80" height="78">
	<title>icon-left-font-monochrome-white-svg</title>
	<style>
		tspan { white-space:pre }
		.shp0 { fill: #ffffff } 
	</style>
	<g id="b84507ba-a37d-0d6c-3fcb-8fc531264173">
		<path id="Layer" fill-rule="evenodd" class="shp0" d="M104.37 48.95C99.89 44.47 97.66 38.88 97.66 32.18C97.66 25.6 99.89 20.05 104.37 15.55C108.85 11.07 114.41 8.83 121.05 8.83C127.72 8.83 133.45 10.91 138.23 15.09L132.02 21.9C128.82 19.4 125.16 18.15 121.05 18.15C116.85 18.18 113.45 19.51 110.86 22.13C108.3 24.71 107.02 28.04 107.02 32.09C107.02 36.44 108.32 39.9 110.91 42.46C113.5 45.02 116.89 46.3 121.1 46.3C124.48 46.3 127.07 45.64 128.87 44.33L128.87 36.29L122.65 36.34L122.65 27.56L138.23 27.56L138.23 49.45C133.48 53.6 127.75 55.67 121.05 55.67C114.41 55.67 108.85 53.43 104.37 48.95ZM155 24.41L155 27.88C157.26 25.6 159.99 24.46 163.18 24.46C164.19 24.46 165.15 24.53 166.06 24.68L164.69 33.32C163.69 32.41 162.24 31.92 160.35 31.86C158.22 32.01 156.44 33.55 155 36.47L155 55.67L146.28 55.67L146.28 25.37L155 24.41ZM174.56 51.42C171.55 48.37 170.04 44.59 170.04 40.08C170.04 35.55 171.55 31.75 174.56 28.71C177.61 25.66 181.4 24.14 185.94 24.14C190.48 24.14 194.27 25.66 197.32 28.71C200.37 31.75 201.89 35.55 201.89 40.08C201.89 44.62 200.37 48.4 197.32 51.42C194.27 54.46 190.48 55.99 185.94 55.99C181.4 55.99 177.61 54.46 174.56 51.42ZM185.94 48.45C188.29 48.45 190.21 47.64 191.7 46.02C193.19 44.44 193.94 42.46 193.94 40.08C193.94 37.71 193.19 35.73 191.7 34.14C190.21 32.53 188.27 31.72 185.9 31.72C183.55 31.72 181.63 32.53 180.14 34.14C178.68 35.73 177.94 37.71 177.94 40.08C177.94 42.46 178.68 44.44 180.14 46.02C181.63 47.64 183.57 48.45 185.94 48.45ZM226.66 44.61L226.66 24.41L235.39 24.41L235.39 55.67L226.66 55.67L226.66 52.83C224.56 54.72 222.06 55.67 219.16 55.67C215.2 55.67 212.19 54.46 210.12 52.06C208.01 49.65 206.96 46.89 206.96 43.79L206.96 24.41L215.74 24.41L215.74 41.59C215.74 43.66 216.25 45.28 217.29 46.44C218.33 47.59 219.89 48.2 222 48.26C223.82 48.14 225.38 46.92 226.66 44.61ZM251.56 68.83L242.83 68.78L242.83 25.37L251.56 24.41L251.56 26.92C253.91 25.25 256.21 24.41 258.46 24.41C263.25 24.41 267.04 25.98 269.84 29.12C272.67 32.22 274.09 35.86 274.09 40.04C274.09 44.21 272.67 47.85 269.84 50.96C267.04 54.1 263.25 55.67 258.46 55.67C255.32 55.45 253.02 54.6 251.56 53.11L251.56 68.83ZM251.56 37.21L251.56 42.28C251.99 45.78 254.18 47.84 258.14 48.45C263.14 48.05 265.96 45.46 266.6 40.68C266.38 34.83 263.57 31.8 258.14 31.58C254.18 32.22 251.99 34.1 251.56 37.21ZM283.09 51.42C280.05 48.37 278.52 44.59 278.52 40.08C278.52 35.55 280.05 31.75 283.09 28.71C286.11 25.66 289.89 24.14 294.43 24.14C298.97 24.14 302.76 25.66 305.8 28.71C308.85 31.75 310.37 35.55 310.37 40.08C310.37 44.62 308.85 48.4 305.8 51.42C302.76 54.46 298.97 55.99 294.43 55.99C289.89 55.99 286.11 54.46 283.09 51.42ZM294.43 48.45C296.8 48.45 298.72 47.64 300.18 46.02C301.68 44.44 302.42 42.46 302.42 40.08C302.42 37.71 301.68 35.73 300.18 34.14C298.72 32.53 296.79 31.72 294.38 31.72C292.03 31.72 290.12 32.53 288.62 34.14C287.16 35.73 286.43 37.71 286.43 40.08C286.43 42.46 287.16 44.44 288.62 46.02C290.12 47.64 292.05 48.45 294.43 48.45ZM324.95 35.7L324.95 55.67L316.18 55.67L316.18 25.37L324.95 24.41L324.95 27.2C326.9 25.37 329.4 24.46 332.45 24.46C336.38 24.46 339.39 25.64 341.49 28.02C343.78 25.64 347.21 24.46 351.78 24.46C355.74 24.46 358.77 25.64 360.87 28.02C362.94 30.43 363.98 33.2 363.98 36.34L363.98 55.67L355.25 55.67L355.25 38.48C355.25 36.41 354.78 34.8 353.83 33.64C352.89 32.51 351.36 31.92 349.26 31.86C347.53 31.98 346.03 33.12 344.78 35.29C344.66 35.93 344.6 36.58 344.6 37.25L344.6 55.67L335.87 55.67L335.87 38.48C335.87 36.41 335.4 34.8 334.46 33.64C333.51 32.51 331.99 31.92 329.89 31.86C327.97 31.98 326.32 33.26 324.95 35.7ZM372.29 28.2C376.25 25.7 380.84 24.46 386.05 24.46C389.8 24.46 392.75 25.49 394.91 27.56C397.11 29.67 398.2 32.79 398.2 36.93L398.2 55.67L389.48 55.67L389.48 53.2C386.92 54.84 384.62 55.67 382.58 55.67C378.43 55.67 375.31 54.78 373.21 53.02C371.14 51.25 370.1 48.81 370.1 45.7C370.1 42.78 371.09 40.18 373.07 37.89C375.02 35.61 378.19 34.46 382.58 34.46C384.62 34.46 386.92 35.09 389.48 36.34L389.48 35.38C389.41 33.09 387.74 31.84 384.45 31.63C380.7 31.63 377.79 32.25 375.72 33.5L372.29 28.2ZM389.48 46.3L389.48 42.78C388.65 41.17 386.67 40.36 383.53 40.36C379.79 40.78 377.81 42.25 377.59 44.75C377.81 47.21 379.79 48.55 383.53 48.77C386.67 48.77 388.65 47.94 389.48 46.3ZM414.79 35.83L414.79 55.67L406.02 55.67L406.02 25.37L414.79 24.41L414.79 27.24C416.89 25.39 419.39 24.46 422.29 24.46C426.25 24.46 429.26 25.64 431.33 28.02C433.41 30.43 434.44 33.2 434.44 36.34L434.44 55.67L425.71 55.67L425.71 38.48C425.71 36.41 425.2 34.8 424.16 33.64C423.09 32.51 421.51 31.92 419.41 31.86C417.61 31.98 416.07 33.31 414.79 35.83ZM450.53 55.67L441.8 55.67L441.8 24.41L450.53 24.41L450.53 55.67ZM442.71 13.81C443.57 12.96 444.69 12.53 446.09 12.53C447.59 12.53 448.76 12.96 449.61 13.81C450.44 14.66 450.85 15.71 450.85 16.96C450.85 18.21 450.44 19.25 449.61 20.07C448.76 20.89 447.62 21.3 446.19 21.3C444.72 21.3 443.57 20.89 442.71 20.07C441.89 19.25 441.48 18.21 441.48 16.96C441.48 15.71 441.89 14.66 442.71 13.81ZM458.75 28.2C462.71 25.7 467.3 24.46 472.51 24.46C476.25 24.46 479.22 25.49 481.42 27.56C483.58 29.67 484.66 32.79 484.66 36.93L484.66 55.67L475.93 55.67L475.93 53.2C473.41 54.84 471.12 55.67 469.08 55.67C464.91 55.67 461.78 54.78 459.71 53.02C457.61 51.25 456.56 48.81 456.56 45.7C456.56 42.78 457.55 40.18 459.53 37.89C461.48 35.61 464.66 34.46 469.08 34.46C471.09 34.46 473.37 35.09 475.93 36.34L475.93 35.38C475.9 33.09 474.24 31.84 470.95 31.63C467.21 31.63 464.28 32.25 462.18 33.5L458.75 28.2ZM475.93 46.3L475.93 42.78C475.11 41.17 473.13 40.36 469.99 40.36C466.25 40.78 464.27 42.25 464.05 44.75C464.27 47.21 466.25 48.55 469.99 48.77C473.13 48.77 475.11 47.94 475.93 46.3Z" />
	</g>
	<g id="eb8ee116-946f-66a4-a2bb-64183428be89">
		<g id="Layer">
			<g id="Layer">
				<path id="Layer" fill-rule="evenodd" class="shp0" d="M11.7 66.7C4.37 59.36 0.37 49.6 0.37 39.2C0.37 28.8 4.37 19.04 11.7 11.7C19.04 4.37 28.8 0.37 39.2 0.37C49.6 0.37 59.36 4.37 66.7 11.7C74.03 19.04 78.03 28.8 78.03 39.2C78.03 49.6 74.03 59.36 66.7 66.7C59.36 74.03 49.6 78.03 39.2 78.03C28.8 78.03 19.04 74.03 11.7 66.7ZM41.43 71.43C44.22 67.25 46.45 62.89 48.02 58.24C46.82 57.41 45.8 56.11 45.24 54.71L28.8 54.71C30.28 60.56 32.79 66.14 36.13 71.34C37.16 71.43 38.18 71.53 39.2 71.53C39.94 71.53 40.69 71.53 41.43 71.43ZM67.53 54.71L60.38 54.71C59.36 57.22 57.22 59.08 54.53 59.64C53.41 63.07 52.02 66.32 50.25 69.57C57.59 66.79 63.82 61.49 67.53 54.71ZM71.43 39.2C71.43 36.13 71.06 33.07 70.13 30.28L57.31 30.28C57.68 33.07 57.87 35.95 57.87 38.83C57.87 40.87 57.78 42.92 57.59 44.96C58.71 45.8 59.64 46.91 60.19 48.12L70.22 48.12C70.97 45.24 71.43 42.27 71.43 39.2ZM50.81 9.1C53.23 13.75 54.99 18.58 56.2 23.69L67.53 23.69C63.82 17.09 57.87 11.8 50.81 9.1ZM51.37 38.83C51.37 35.95 51.18 33.07 50.81 30.28L32.7 30.28C31.49 32.33 29.54 33.91 27.12 34.37C26.94 36.13 26.85 37.9 26.85 39.66C26.85 42.45 27.12 45.33 27.5 48.12L45.42 48.12C46.45 45.8 48.58 44.12 51.18 43.57C51.28 41.99 51.37 40.41 51.37 38.83ZM30.28 19.69C31.58 20.72 32.6 22.11 33.16 23.69L49.32 23.69C47.84 17.84 45.33 12.26 41.99 7.06C41.06 6.97 40.13 6.97 39.2 6.97C38.46 6.97 37.62 6.97 36.78 7.06C34.09 11.05 31.95 15.23 30.28 19.69ZM10.96 23.59L17.74 23.59C18.67 20.9 20.99 18.76 23.87 18.21C24.99 15.05 26.38 11.89 27.96 8.92C20.62 11.7 14.58 17 10.96 23.59ZM8.27 48.12L20.9 48.12C20.53 45.33 20.34 42.54 20.34 39.66C20.34 37.44 20.53 35.21 20.72 32.98C19.79 32.23 18.95 31.3 18.39 30.28L8.27 30.28C7.43 33.07 6.97 36.13 6.97 39.2C6.97 42.27 7.34 45.24 8.27 48.12ZM10.87 54.62C14.49 61.21 20.34 66.42 27.4 69.2C24.99 64.56 23.22 59.64 22.02 54.62L10.87 54.62Z" />
			</g>
		</g>
	</g>
</svg>